<?xml version="1.0" encoding="UTF-8"?>
<svg version="1.1" xmlns="http://www.w3.org/2000/svg" width="255" height="454">
<path d="M0 0 C4.23904733 4.02402319 6.8590239 9.41365762 9.5859375 14.515625 C11.25400764 17.44626756 13.10839994 20.2086501 15 23 C17.25578021 26.33554142 19.42161197 29.63263051 21.3125 33.1875 C24.09382889 38.35946944 27.34290249 43.21229724 30.55419922 48.12304688 C34.59281279 54.31964659 38.47100403 60.60461104 42.29541016 66.93530273 C44.23576621 70.141538 46.18946853 73.30818502 48.31640625 76.39453125 C50 79 50 79 50 81 C50.62342285 80.71801758 51.2468457 80.43603516 51.88916016 80.14550781 C75.84428481 69.36636383 75.84428481 69.36636383 87 67 C87.67853027 66.85481934 88.35706055 66.70963867 89.05615234 66.56005859 C121.95158298 59.77997316 156.36538419 64.57899389 184.73193359 83.1328125 C192.72497997 88.47731372 200.04249743 94.35119209 207 101 C208.10214844 101.99 208.10214844 101.99 209.2265625 103 C230.08736638 122.46025521 242.97075303 153.65282302 244 182 C244.0515625 183.15113281 244.103125 184.30226562 244.15625 185.48828125 C244.95513492 219.14130833 232.76683198 252.85444287 209.80859375 277.44140625 C186.30345384 302.07457928 153.2784318 317.44340932 119.06713867 318.47021484 C107.00311691 318.58736924 95.64250616 317.12159727 84 314 C83.32146973 313.81808105 82.64293945 313.63616211 81.94384766 313.44873047 C60.52827498 307.46520342 41.74480067 295.48318012 26 280 C25.154375 279.17371094 24.30875 278.34742188 23.4375 277.49609375 C-6.0400152 247.30998444 -11.15912848 208.7169595 -11.14526367 168.43652344 C-11.14826582 166.66037426 -11.15167072 164.88422572 -11.15544128 163.108078 C-11.16416656 158.34649266 -11.16661414 153.58492535 -11.16725707 148.82333279 C-11.1679728 145.84251918 -11.17011663 142.86171002 -11.17275429 139.88089752 C-11.18196126 129.46730767 -11.186094 119.05373051 -11.18530273 108.64013672 C-11.18469936 98.95027835 -11.19531367 89.26047517 -11.2110464 79.57063079 C-11.22411498 71.22289448 -11.2294871 62.87517628 -11.22884732 54.52742982 C-11.22859265 49.55315587 -11.23142862 44.57893136 -11.24202538 39.60466766 C-11.25169778 34.93908942 -11.25179148 30.27360814 -11.24450874 25.6080265 C-11.24346268 23.89799419 -11.24582711 22.18795584 -11.2518692 20.47793388 C-11.25958721 18.14246269 -11.25494616 15.80732677 -11.24723816 13.47186279 C-11.24805531 11.51309267 -11.24805531 11.51309267 -11.24888897 9.51475143 C-10.99889395 5.98438068 -10.38879431 3.24873624 -9 0 C-5.64737261 -1.6763137 -3.554469 -1.00709955 0 0 Z M109.84375 129.21484375 C96.43427939 130.55881096 83.94425456 135.84136222 74 145 C73.08541016 145.77923828 73.08541016 145.77923828 72.15234375 146.57421875 C60.00025061 157.60458022 55.82870996 173.18847207 55 189 C54.82640483 196.24301473 54.88321171 203.48990635 54.90234375 210.734375 C54.90421207 212.82472703 54.90563402 214.9150795 54.90663147 217.00543213 C54.91042404 222.46990192 54.92022598 227.93434455 54.93133545 233.39880371 C54.94162017 238.98982374 54.94614413 244.58084821 54.95117188 250.171875 C54.9618516 261.11459518 54.97888821 272.05729532 55 283 C55.99 283 56.98 283 58 283 C59.66484823 280.67532201 61.12167509 278.39683422 62.5625 275.9375 C63.44842586 274.47008732 64.33650473 273.00397266 65.2265625 271.5390625 C65.68192383 270.78657227 66.13728516 270.03408203 66.60644531 269.25878906 C69.18309106 265.08234784 71.9402801 261.02777733 74.68774414 256.96264648 C76.89110943 253.69373792 78.97761983 250.38300291 81 247 C81.33 246.67 81.66 246.34 82 246 C87.69991589 246.39309765 91.73999862 247.69298185 97 250 C111.87314835 254.44419792 129.07025332 253.83166538 143 247 C143.79921875 246.65066406 144.5984375 246.30132812 145.421875 245.94140625 C156.13061863 240.75791864 164.96820982 231.06427912 171 221 C171.39703125 220.35804688 171.7940625 219.71609375 172.203125 219.0546875 C179.99173421 205.16306361 179.49493441 187.70689089 176.10546875 172.60546875 C171.14817854 156.43734556 160.11179276 143.72826365 145.375 135.75 C133.89526754 130.3355901 122.43105542 128.35803459 109.84375 129.21484375 Z " fill="#1A1341" transform="translate(11,1)"/>
<path d="M0 0 C1.85546875 0.21484375 1.85546875 0.21484375 4 1 C5.17578125 3.06640625 5.17578125 3.06640625 6.3125 5.5625 C7.73892925 8.12942133 7.73892925 8.12942133 10 10 C13.86301015 10.55375719 17.4014008 10.36967817 21.29296875 10.13671875 C27.62336315 9.90324793 32.02270084 11.36657895 36.875 15.375 C37.57625 16.24125 38.2775 17.1075 39 18 C39.5775 18.70125 40.155 19.4025 40.75 20.125 C43.71453536 26.94343133 43.70148221 34.08913204 41.03515625 40.984375 C39.42814896 44.11349107 37.41735186 46.45198048 35 49 C36.14239817 50.33627775 37.28901055 51.66895388 38.4375 53 C39.07558594 53.7425 39.71367188 54.485 40.37109375 55.25 C40.90863281 55.8275 41.44617188 56.405 42 57 C42.33 57 42.66 57 43 57 C43.33 55.68 43.66 54.36 44 53 C46.70734599 52.06284177 48.07530925 52.01602324 50.9375 52.625 C54.7530032 53.09220447 55.84247546 52.02405419 59 50 C61.6875 49.6875 61.6875 49.6875 64 50 C66 52 66 52 66 55 C66.49628906 54.72285156 66.99257812 54.44570313 67.50390625 54.16015625 C72.51042275 51.49064745 77.22059937 49.11669181 83.0390625 50.4765625 C87.34288108 51.94340704 90.6026986 53.92119561 94 57 C94.350625 56.175 94.70125 55.35 95.0625 54.5 C95.701875 53.675 96.34125 52.85 97 52 C100.6875 51.6875 100.6875 51.6875 104 52 C104.99 53.98 105.98 55.96 107 58 C107.515625 57.4225 108.03125 56.845 108.5625 56.25 C112.52788813 52.58964173 116.06365945 50.31685573 121.4375 49.4375 C127.44535481 50.38610865 131.50135296 53.31402208 135.5 57.8125 C135.995 58.534375 136.49 59.25625 137 60 C137.66 59.0925 138.32 58.185 139 57.25 C142.11130439 53.59986635 145.28017605 51.13817003 150 50 C156.11275503 50.21433222 160.87860106 51.66878375 166 55 C166.13277344 54.14535156 166.26554688 53.29070312 166.40234375 52.41015625 C166.66724609 50.75306641 166.66724609 50.75306641 166.9375 49.0625 C167.11152344 47.96035156 167.28554687 46.85820312 167.46484375 45.72265625 C168 43 168 43 169 42 C171.9375 41.8125 171.9375 41.8125 175 42 C177.76223278 44.76223278 177.57856291 47.20706617 178 51 C180.97 51.99 180.97 51.99 184 53 C185.125 57.75 185.125 57.75 184 60 C182.02111039 60.72693904 180.02045442 61.39816251 178 62 C178 65.63 178 69.26 178 73 C178.969375 73.474375 179.93875 73.94875 180.9375 74.4375 C184 76 184 76 185 77 C185.04092937 79.33297433 185.04241723 81.66705225 185 84 C177.07241325 85.43352876 177.07241325 85.43352876 173.0625 83.8125 C170.94598046 81.95252828 170.16215129 80.5171259 169 78 C168.50113281 78.433125 168.00226563 78.86625 167.48828125 79.3125 C161.80654505 83.71916075 157.27891767 84.94319411 150.09765625 84.58203125 C145.27671537 83.67620503 142.15614247 81.73072225 139 78 C137.62480556 75.65655641 136.8356284 73.61133875 136 71 C135.01 71.495 135.01 71.495 134 72 C134.66 72.33 135.32 72.66 136 73 C136.375 75.1875 136.375 75.1875 136 78 C129.99672067 83.74226718 126.38790793 84.40536775 118.28125 84.3515625 C113.41465867 83.830142 111.47371834 82.3965246 108 79 C107.29030284 77.68906439 106.61270131 76.35897731 106 75 C105.97421875 76.16917969 105.9484375 77.33835937 105.921875 78.54296875 C105.86557633 80.09118226 105.80822938 81.6393579 105.75 83.1875 C105.73582031 83.95642578 105.72164063 84.72535156 105.70703125 85.51757812 C105.54311683 89.33678402 105.20276336 91.63577693 103.3125 95.03125 C100.4109653 97.50147549 99.00518547 97.53602294 95.25 97.3125 C93.77273437 97.24482422 93.77273437 97.24482422 92.265625 97.17578125 C91.51796875 97.11777344 90.7703125 97.05976563 90 97 C89.38671875 94.64453125 89.38671875 94.64453125 89 92 C90.8125 89.6875 90.8125 89.6875 93 88 C93.66 88 94.32 88 95 88 C95 84.04 95 80.08 95 76 C94.236875 76.94875 93.47375 77.8975 92.6875 78.875 C89.90217009 82.33784259 87.73353825 83.85329235 83.25 84.75 C76.53841491 85.42607542 71.18664749 83.22168982 66 79 C63.65133206 74.86187076 62.47523864 69.71921796 63.38671875 64.99609375 C63.86614318 63.31300799 64.42638602 61.65335794 65 60 C61.7 60.66 58.4 61.32 55 62 C54.90912109 64.25650391 54.90912109 64.25650391 54.81640625 66.55859375 C54.73201957 68.51823989 54.64737065 70.47787476 54.5625 72.4375 C54.52318359 73.43072266 54.48386719 74.42394531 54.44335938 75.44726562 C54.40146484 76.39150391 54.35957031 77.33574219 54.31640625 78.30859375 C54.27974854 79.18314209 54.24309082 80.05769043 54.20532227 80.95874023 C54 83 54 83 53 84 C48.96839809 84.26293056 47.44107266 84.29404844 44 82 C43.3125 78.875 43.3125 78.875 43 76 C42.649375 76.86625 42.29875 77.7325 41.9375 78.625 C39.00302752 83.73666174 34.85152984 86.76564677 30 90 C23.25646584 91.35088568 17.51449423 91.08955475 11 89 C10.31164062 90.0828125 10.31164062 90.0828125 9.609375 91.1875 C8.99578125 92.115625 8.3821875 93.04375 7.75 94 C7.14671875 94.928125 6.5434375 95.85625 5.921875 96.8125 C5.28765625 97.534375 4.6534375 98.25625 4 99 C2.68 99 1.36 99 0 99 C-2.23200031 94.53599937 -1.18502009 88.40030966 -1.1875 83.5 C-1.19974609 82.25734375 -1.21199219 81.0146875 -1.22460938 79.734375 C-1.25439483 60.90996993 -1.25439483 60.90996993 5 53 C5.7425 52.05125 6.485 51.1025 7.25 50.125 C8.11625 49.073125 8.11625 49.073125 9 48 C8.13375 47.7215625 8.13375 47.7215625 7.25 47.4375 C2.98357876 44.71173087 1.49564338 40.97143547 0.3046875 36.234375 C-4.40017986 8.80035971 -4.40017986 8.80035971 0 0 Z M13 56 C13 56.66 13 57.32 13 58 C12.34 58 11.68 58 11 58 C6.9550018 63.89895571 7.72251024 70.07303328 8 77 C8.56589844 77.27714844 9.13179687 77.55429687 9.71484375 77.83984375 C10.44832031 78.20207031 11.18179688 78.56429687 11.9375 78.9375 C12.66839844 79.29714844 13.39929688 79.65679687 14.15234375 80.02734375 C16 81 16 81 17 82 C18.60048202 82.12535652 20.20715928 82.17574787 21.8125 82.1875 C22.68519531 82.20167969 23.55789062 82.21585938 24.45703125 82.23046875 C27.10919085 81.99010406 28.72464999 81.34187309 31 80 C31 79.34 31 78.68 31 78 C31.99 77.67 32.98 77.34 34 77 C35.93023936 73.26820391 37.42301359 69.04085504 36.5546875 64.8515625 C35.68881962 62.75975851 35.68881962 62.75975851 34 60 C33.67 59.34 33.34 58.68 33 58 C32.34 58 31.68 58 31 58 C31 57.34 31 56.68 31 56 C27.88610696 54.18356239 25.59222291 53.7280962 22 53.75 C21.154375 53.74484375 20.30875 53.7396875 19.4375 53.734375 C16.86521189 54.01468845 15.2196892 54.7051813 13 56 Z M75.125 62.0625 C72.69472928 64.81773542 72.69472928 64.81773542 73 68.125 C74.00117075 71.0033659 74.53758762 72.26719129 77 74 C79.5016827 75.04909275 80.55092434 75.15849729 83.125 74.25 C85.29166667 72.97916667 85.29166667 72.97916667 87 70 C86.80680255 66.90884073 86.52295608 64.75828632 84.75 62.1875 C80.88756779 59.56656386 78.9976785 59.28427412 75.125 62.0625 Z M119 60 C118.67 60.66 118.34 61.32 118 62 C120.64 62 123.28 62 126 62 C124.16116119 59.71271266 124.16116119 59.71271266 121.375 59.875 C120.199375 59.936875 120.199375 59.936875 119 60 Z M148 62 C146.43569752 65.12860495 146.64372716 67.55602925 147 71 C149.04881284 73.63926358 149.04881284 73.63926358 152 75 C155.33901454 74.81615628 155.33901454 74.81615628 158 73 C161.00331018 72.85806663 163.99217134 72.95763622 167 73 C167.33 69.04 167.66 65.08 168 61 C166.80375 61.391875 165.6075 61.78375 164.375 62.1875 C160.88116522 63.08573767 160.15802787 63.06438173 156.625 61.625 C155.75875 61.08875 154.8925 60.5525 154 60 C151.49679597 60 150.14881388 60.75230162 148 62 Z M116 70 C116 70.99 116 71.98 116 73 C118.68529342 74.31357916 118.68529342 74.31357916 122 75 C125.3350733 73.75056659 125.3350733 73.75056659 128 72 C128 71.67 128 71.34 128 71 C124.04 70.67 120.08 70.34 116 70 Z " fill="#1A1341" transform="translate(30,354)"/>
<path d="M0 0 C1.35439668 2.70879335 1.06501451 5.00933268 1 8 C1.763125 8.0825 2.52625 8.165 3.3125 8.25 C6 9 6 9 7.25 11.125 C7.8275 11.74375 8.405 12.3625 9 13 C11.30752721 12.92368101 13.49961191 12.5422379 15.77734375 12.171875 C18.95824624 11.92590012 20.58098011 13.02080191 23 15 C25.89513443 17.89513443 25.85396664 21.07701302 26 25 C25.80371044 28.02379397 25.4507581 31.00419231 25 34 C22.52076199 34.02685095 20.0418116 34.04676547 17.5625 34.0625 C16.85544922 34.07087891 16.14839844 34.07925781 15.41992188 34.08789062 C13.61306441 34.09653588 11.80612397 34.05220011 10 34 C9.67 33.67 9.34 33.34 9 33 C8.814375 34.7015625 8.814375 34.7015625 8.625 36.4375 C8.315625 38.2009375 8.315625 38.2009375 8 40 C4.80657621 41.59671189 1.47454369 41.37418163 -2 41 C-5.73059215 39.34195904 -7.77384494 37.39781562 -10 34 C-10.721875 34.763125 -11.44375 35.52625 -12.1875 36.3125 C-17.96026094 41.82869379 -17.96026094 41.82869379 -22 42.16796875 C-27.85424017 41.89355124 -31.48376152 39.73485215 -36.0546875 36.1796875 C-36.69664062 35.79039062 -37.33859375 35.40109375 -38 35 C-38.99 35.33 -39.98 35.66 -41 36 C-41.268125 36.639375 -41.53625 37.27875 -41.8125 37.9375 C-43 40 -43 40 -45.5625 41.3125 C-50.88266301 42.3765326 -55.44496917 42.41946157 -60.28515625 39.73046875 C-63.87469535 37.15720569 -66.22630192 35.10891867 -68 31 C-68.639375 32.0725 -69.27875 33.145 -69.9375 34.25 C-73.1034703 38.65016212 -76.78269674 40.67164138 -82 42 C-86.89324818 42.36179284 -91.34026209 40.97598256 -95.45703125 38.34765625 C-99.12379702 35.14503805 -100.69745442 31.22783563 -101.34375 26.46875 C-101.57811962 19.98452386 -100.40694757 15.62576098 -95.9375 10.75 C-91.11408116 7.87647388 -86.18422921 6.60197135 -80.5625 7.3046875 C-74.65486045 8.92130508 -71.45581706 12.05343833 -68 17 C-67.6596875 16.52949219 -67.319375 16.05898438 -66.96875 15.57421875 C-63.27220597 10.82573267 -60.00833746 8.07841954 -54 7 C-48.13091918 6.47783979 -44.57299481 7.98052674 -39.9375 11.5625 C-38.60969731 12.69056485 -37.29153964 13.83059176 -36 15 C-35.62875 14.1028125 -35.62875 14.1028125 -35.25 13.1875 C-33.38094727 9.91665773 -31.32434842 8.37613297 -27.703125 7.34765625 C-21.37909434 6.61253804 -17.30618998 7.42559526 -12 11 C-11 12 -11 12 -10.9375 14.5625 C-10.958125 15.366875 -10.97875 16.17125 -11 17 C-13.65300918 18.73465985 -14.84506573 19.01580962 -18.0625 18.6875 C-21 18 -21 18 -24 17 C-24.495 17.495 -24.495 17.495 -25 18 C-24.40832031 18.18175781 -23.81664062 18.36351562 -23.20703125 18.55078125 C-14.43371409 21.34164071 -14.43371409 21.34164071 -11 24 C-11 24.99 -11 25.98 -11 27 C-10.34 27 -9.68 27 -9 27 C-9.24339111 26.15417358 -9.24339111 26.15417358 -9.49169922 25.29125977 C-10.0222734 22.89959852 -10.12935266 20.78718557 -10.1328125 18.33984375 C-10.13410156 17.46392578 -10.13539063 16.58800781 -10.13671875 15.68554688 C-10.13285156 14.77869141 -10.12898438 13.87183594 -10.125 12.9375 C-10.12886719 12.02677734 -10.13273437 11.11605469 -10.13671875 10.17773438 C-10.13542969 9.30310547 -10.13414062 8.42847656 -10.1328125 7.52734375 C-10.13168457 6.73062256 -10.13055664 5.93390137 -10.12939453 5.11303711 C-10 3 -10 3 -9 0 C-5.88173308 -1.55913346 -3.32926126 -0.66585225 0 0 Z M-57 19 C-58.73823201 21.40041563 -59.02979994 22.59273413 -58.8125 25.5625 C-57.92336519 28.22990442 -57.24544809 29.33670512 -55 31 C-52.4983173 32.04909275 -51.44907566 32.15849729 -48.875 31.25 C-46.70833333 29.97916667 -46.70833333 29.97916667 -45 27 C-44.5547646 22.86823736 -44.5547646 22.86823736 -46.1875 19.1875 C-49.98590925 16.69888704 -53.25814455 16.29038054 -57 19 Z M-90 20 C-91.36636155 21.15866921 -91.36636155 21.15866921 -91.375 24.3125 C-91.3382003 28.07646078 -91.3382003 28.07646078 -88.875 30.5625 C-86.04506632 32.33435432 -86.04506632 32.33435432 -82.8125 31.4375 C-79.75692522 30.1645271 -79.75692522 30.1645271 -78 27 C-78.40595214 22.34184319 -78.40595214 22.34184319 -80 18 C-84.35077137 16.42888812 -86.34067496 17.35715414 -90 20 Z M2.875 17.9375 C1.451875 18.4634375 1.451875 18.4634375 0 19 C0.33 22.63 0.66 26.26 1 30 C2.65 30.33 4.3 30.66 6 31 C6.144375 29.783125 6.28875 28.56625 6.4375 27.3125 C6.82780953 24.17329623 7.32351856 21.0924866 8 18 C5.87060172 16.64973223 5.87060172 16.64973223 2.875 17.9375 Z M-35 23 C-35 24.98 -35 26.96 -35 29 C-31.535 28.505 -31.535 28.505 -28 28 C-31.32086771 25.22999175 -31.32086771 25.22999175 -35 23 Z M14 25 C14 25.99 14 26.98 14 28 C14.99 28 15.98 28 17 28 C17 27.01 17 26.02 17 25 C16.01 25 15.02 25 14 25 Z M-28 28 C-26.25065102 30.08333079 -26.25065102 30.08333079 -24 32 C-22.68 32 -21.36 32 -20 32 C-20.33 31.01 -20.66 30.02 -21 29 C-23.31 28.67 -25.62 28.34 -28 28 Z " fill="#1A1341" transform="translate(175,361)"/>
</svg>
